<svg width="1200" height="630" viewBox="0 0 1200 630" fill="none" xmlns="http://www.w3.org/2000/svg">
<g clip-path="url(#clip0_5299_194)">
<rect width="1200" height="630" fill="white"/>
<g filter="url(#filter0_f_5299_194)">
<g clip-path="url(#clip1_5299_194)">
<path opacity="0.154" fill-rule="evenodd" clip-rule="evenodd" d="M-181.316 292.698C-104.8 248.389 6.61689 274.623 103.017 265.173C200 255.667 310.275 193.885 388.975 236.804C474.725 283.574 426.259 388.619 464.234 462.171C489.092 510.307 539.634 545.929 572.134 591.511C620.4 659.181 713.525 719.622 702.05 795.628C690.784 870.231 615.867 958.252 515.192 968.736C396.892 981.059 321.259 832.794 203.475 847.541C77.0586 863.371 59.5752 1050.72 -68.0665 1041.78C-175.233 1034.28 -160.483 899.83 -174.858 821.061C-184.991 765.604 -119.966 712.626 -138.108 658.289C-160.125 592.336 -277.375 557.723 -285.375 490.053C-293.833 418.507 -257.866 337.013 -181.316 292.692V292.698Z" fill="url(#paint0_linear_5299_194)"/>
<path opacity="0.154" fill-rule="evenodd" clip-rule="evenodd" d="M919.525 71.0164C1041.54 59.0501 1148.97 -24.8617 1264.11 7.28425C1420.85 51.0459 1604.94 138.108 1603.32 261.917C1601.71 385.733 1387.26 433.322 1257.52 511.678C1149.19 577.108 1057.32 692.797 919.525 674.9C783.108 657.181 784.583 506.252 682.575 437.013C570.117 360.687 319.242 374.591 311.058 261.917C302.992 150.941 517.233 110.385 655.675 66.9497C739.85 40.5377 828.867 79.9065 919.525 71.0164Z" fill="url(#paint1_linear_5299_194)"/>
</g>
</g>
<g filter="url(#filter1_f_5299_194)">
<g clip-path="url(#clip2_5299_194)">
<path opacity="0.154" fill-rule="evenodd" clip-rule="evenodd" d="M-60.1655 -317.417C32.4526 -304.865 92.5157 -205.849 170.98 -148.779C249.918 -91.3624 381.687 -71.4249 404.012 20.2123C428.331 120.064 306.219 180.598 273.439 271.825C251.989 331.534 259.684 397.554 245.942 460.181C225.555 553.167 244.014 670.19 172.956 730.014C103.207 788.732 -24.2657 816.154 -106.716 757.1C-203.605 687.711 -136.854 504.436 -235.361 437.555C-341.091 365.773 -508.32 520.568 -594.537 425.923C-666.92 346.456 -545.294 236.864 -490.911 157.024C-452.632 100.805 -361.295 97.8396 -329.81 37.1763C-291.592 -36.4527 -349.026 -146.885 -299.117 -212.521C-246.35 -281.916 -152.813 -329.987 -60.1604 -317.423L-60.1655 -317.417Z" fill="url(#paint2_linear_5299_194)"/>
<path opacity="0.154" fill-rule="evenodd" clip-rule="evenodd" d="M1180.04 438.902C1225.62 552.937 1351.7 630.304 1343.83 751.548C1333.11 916.598 1278.74 1121.64 1133.29 1158.94C987.826 1196.25 876.607 1004.16 751.26 903.514C646.59 819.47 487.305 767.098 472.626 628.452C458.095 491.197 635.28 445.247 690.002 325.038C750.323 192.516 669.141 -45.3068 799.015 -88.5734C926.929 -131.194 1029.86 62.8983 1116.55 182.912C1169.26 255.882 1146.17 354.173 1180.04 438.902Z" fill="url(#paint3_linear_5299_194)"/>
</g>
</g>
<rect x="239.5" y="193" width="749" height="232" rx="48" fill="#FFF6EC" fill-opacity="0.2"/>
<path d="M304.62 338.2C302.327 338.2 300.14 337.907 298.06 337.32C296.033 336.733 294.167 335.853 292.46 334.68C292.14 334.413 291.847 334.147 291.58 333.88C291.313 333.56 291.1 333.213 290.94 332.84C290.513 331.507 290.22 329.88 290.06 327.96C289.9 325.987 289.847 324.093 289.9 322.28C289.9 321.907 290.033 321.64 290.3 321.48C290.62 321.32 290.993 321.24 291.42 321.24C291.847 321.24 292.167 321.32 292.38 321.48C292.647 321.587 292.833 321.827 292.94 322.2C294.113 326.2 295.82 329.32 298.06 331.56C300.3 333.8 302.833 334.92 305.66 334.92C307.42 334.92 308.913 334.52 310.14 333.72C311.367 332.92 312.3 331.88 312.94 330.6C313.58 329.32 313.9 327.933 313.9 326.44C313.9 324.573 313.553 323.027 312.86 321.8C312.22 320.573 311.233 319.48 309.9 318.52C308.567 317.507 306.887 316.44 304.86 315.32C302.673 314.04 300.54 312.707 298.46 311.32C296.38 309.88 294.673 308.2 293.34 306.28C292.007 304.307 291.34 301.88 291.34 299C291.34 296.013 292.087 293.4 293.58 291.16C295.127 288.867 297.26 287.08 299.98 285.8C302.7 284.52 305.847 283.88 309.42 283.88C311.393 283.88 313.233 284.093 314.94 284.52C316.647 284.947 318.007 285.373 319.02 285.8C319.607 286.013 320.033 286.28 320.3 286.6C320.62 286.92 320.86 287.427 321.02 288.12C321.34 289.24 321.607 290.573 321.82 292.12C322.087 293.667 322.22 295.293 322.22 297C322.22 297.64 321.74 297.96 320.78 297.96C320.353 297.96 319.927 297.853 319.5 297.64C319.073 297.427 318.807 297.133 318.7 296.76C317.74 293.667 316.407 291.32 314.7 289.72C313.047 288.12 310.993 287.32 308.54 287.32C306.887 287.32 305.473 287.613 304.3 288.2C303.127 288.733 302.193 289.587 301.5 290.76C300.807 291.88 300.46 293.347 300.46 295.16C300.46 296.547 300.913 297.827 301.82 299C302.78 300.173 304.087 301.32 305.74 302.44C307.447 303.56 309.34 304.787 311.42 306.12C313.98 307.613 316.113 309.133 317.82 310.68C319.58 312.173 320.913 313.853 321.82 315.72C322.727 317.533 323.18 319.693 323.18 322.2C323.18 325.72 322.407 328.68 320.86 331.08C319.313 333.427 317.153 335.213 314.38 336.44C311.607 337.613 308.353 338.2 304.62 338.2ZM343.835 338.12C340.902 338.12 338.315 337.373 336.075 335.88C333.835 334.387 332.075 332.333 330.795 329.72C329.515 327.053 328.875 324.04 328.875 320.68C328.875 317.427 329.622 314.467 331.115 311.8C332.662 309.08 334.715 306.92 337.275 305.32C339.835 303.72 342.635 302.92 345.675 302.92C347.915 302.92 349.915 303.4 351.675 304.36C353.435 305.267 354.822 306.547 355.835 308.2C356.902 309.8 357.435 311.613 357.435 313.64C357.435 315.56 356.608 316.52 354.955 316.52H338.715C337.968 316.52 337.408 316.733 337.035 317.16C336.715 317.533 336.555 318.253 336.555 319.32C336.555 321.56 337.035 323.587 337.995 325.4C339.008 327.213 340.342 328.653 341.995 329.72C343.648 330.787 345.542 331.32 347.675 331.32C349.222 331.32 350.635 331.027 351.915 330.44C353.248 329.8 354.502 328.947 355.675 327.88C355.888 327.72 356.075 327.587 356.235 327.48C356.395 327.32 356.555 327.24 356.715 327.24C357.248 327.24 357.515 327.56 357.515 328.2C357.515 328.947 357.195 329.853 356.555 330.92C355.915 332.147 354.982 333.32 353.755 334.44C352.582 335.56 351.142 336.44 349.435 337.08C347.728 337.773 345.862 338.12 343.835 338.12ZM338.715 313.4H344.395C345.782 313.4 346.822 313.373 347.515 313.32C348.208 313.267 348.875 313.16 349.515 313C349.782 312.947 349.968 312.733 350.075 312.36C350.182 311.933 350.235 311.453 350.235 310.92C350.235 309.48 349.675 308.28 348.555 307.32C347.488 306.307 346.155 305.8 344.555 305.8C343.435 305.8 342.342 306.147 341.275 306.84C340.208 307.48 339.328 308.307 338.635 309.32C337.942 310.333 337.622 311.373 337.675 312.44C337.675 313.08 338.022 313.4 338.715 313.4ZM378.099 338.12C374.952 338.12 372.125 337.427 369.619 336.04C367.112 334.6 365.112 332.627 363.619 330.12C362.125 327.613 361.379 324.787 361.379 321.64C361.379 319.187 361.859 316.84 362.819 314.6C363.779 312.36 365.085 310.36 366.739 308.6C368.392 306.84 370.339 305.453 372.579 304.44C374.819 303.373 377.219 302.84 379.779 302.84C383.032 302.84 385.939 303.613 388.499 305.16C391.112 306.653 393.192 308.653 394.739 311.16C396.285 313.667 397.059 316.413 397.059 319.4C397.059 322.707 396.339 325.8 394.899 328.68C393.512 331.507 391.405 333.8 388.579 335.56C385.805 337.267 382.312 338.12 378.099 338.12ZM379.699 335C381.032 335 382.205 334.733 383.219 334.2C384.285 333.667 385.139 332.84 385.779 331.72C386.419 330.6 386.845 329.133 387.059 327.32C387.325 325.453 387.459 323.453 387.459 321.32C387.459 318.493 387.085 315.933 386.339 313.64C385.592 311.347 384.552 309.507 383.219 308.12C381.885 306.733 380.312 306.04 378.499 306.04C377.485 306.04 376.552 306.227 375.699 306.6C374.899 306.92 374.152 307.48 373.459 308.28C372.499 309.4 371.832 310.947 371.459 312.92C371.139 314.84 370.979 317.08 370.979 319.64C370.979 322.2 371.352 324.653 372.099 327C372.899 329.347 373.939 331.267 375.219 332.76C376.552 334.253 378.045 335 379.699 335ZM427.459 338.6C427.032 338.6 426.819 338.36 426.819 337.88C426.819 337.293 426.872 336.467 426.979 335.4C427.139 334.333 427.219 333.48 427.219 332.84C427.219 332.68 427.192 332.547 427.139 332.44C427.139 332.28 427.139 332.173 427.139 332.12C425.485 333.933 423.539 335.4 421.299 336.52C419.112 337.64 416.792 338.2 414.339 338.2C412.632 338.2 411.085 337.747 409.699 336.84C408.365 335.933 407.299 334.68 406.499 333.08C405.752 331.48 405.379 329.613 405.379 327.48V312.12C405.379 310.893 405.139 309.933 404.659 309.24C404.179 308.493 403.325 307.933 402.099 307.56C401.779 307.507 401.485 307.373 401.219 307.16C401.005 306.947 400.899 306.627 400.899 306.2C400.899 305.773 401.005 305.453 401.219 305.24C401.485 305.027 401.779 304.893 402.099 304.84C404.232 304.733 406.072 304.547 407.619 304.28C409.165 303.96 410.819 303.587 412.579 303.16C412.792 303.053 413.005 302.973 413.219 302.92C413.432 302.867 413.645 302.84 413.859 302.84C414.552 302.84 414.872 303.213 414.819 303.96C414.659 305.187 414.525 306.227 414.419 307.08C414.312 307.88 414.259 308.893 414.259 310.12V325.56C414.259 326.84 414.499 327.987 414.979 329C415.459 330.013 416.125 330.813 416.979 331.4C417.832 331.987 418.765 332.307 419.779 332.36C420.792 332.36 421.725 332.253 422.579 332.04C423.485 331.827 424.365 331.347 425.219 330.6C425.645 330.28 426.125 329.693 426.659 328.84C427.192 327.933 427.459 326.76 427.459 325.32V311.88C427.459 310.867 427.219 310.067 426.739 309.48C426.312 308.84 425.725 308.36 424.979 308.04C424.285 307.72 423.565 307.56 422.819 307.56C422.232 307.507 421.779 307.373 421.459 307.16C421.139 306.947 420.979 306.52 420.979 305.88C420.979 305.347 421.165 304.973 421.539 304.76C421.912 304.547 422.339 304.44 422.819 304.44C425.165 304.28 427.059 304.147 428.499 304.04C429.939 303.933 431.139 303.8 432.099 303.64C433.112 303.48 434.099 303.267 435.059 303C435.219 302.947 435.379 302.92 435.539 302.92C435.752 302.867 435.912 302.84 436.019 302.84C436.765 302.84 437.139 303.133 437.139 303.72C437.139 303.88 437.112 304.067 437.059 304.28C437.059 304.44 437.005 304.627 436.899 304.84C436.845 305 436.765 305.453 436.659 306.2C436.605 306.947 436.525 307.72 436.419 308.52C436.365 309.32 436.339 309.933 436.339 310.36V328.92C436.339 330.2 436.472 331.08 436.739 331.56C437.059 332.04 437.405 332.28 437.779 332.28C438.099 332.28 438.552 332.28 439.139 332.28C439.779 332.227 440.232 332.2 440.499 332.2C440.925 332.2 441.272 332.307 441.539 332.52C441.805 332.733 441.939 333.08 441.939 333.56C441.939 334.04 441.832 334.413 441.619 334.68C441.459 334.893 441.139 335.027 440.659 335.08C438.259 335.293 436.125 335.72 434.259 336.36C432.392 336.947 430.765 337.533 429.379 338.12C429.059 338.227 428.712 338.333 428.339 338.44C428.019 338.547 427.725 338.6 427.459 338.6ZM445.616 337.24C445.19 337.24 444.816 337.16 444.496 337C444.176 336.84 444.016 336.6 444.016 336.28C444.016 335.853 444.176 335.533 444.496 335.32C444.87 335.107 445.323 334.893 445.856 334.68C446.656 334.413 447.376 334.12 448.016 333.8C448.71 333.48 449.056 332.76 449.056 331.64V292.6C449.056 291.107 448.816 289.853 448.336 288.84C447.91 287.773 447.03 287.107 445.696 286.84C445.163 286.733 444.896 286.333 444.896 285.64C444.896 285 445.136 284.627 445.616 284.52C446.95 284.253 448.31 283.88 449.696 283.4C451.136 282.92 452.47 282.44 453.696 281.96C454.976 281.48 456.043 281.107 456.896 280.84C457.27 280.68 457.536 280.6 457.696 280.6C457.963 280.6 458.15 280.707 458.256 280.92C458.363 281.08 458.416 281.24 458.416 281.4C458.416 281.827 458.336 282.653 458.176 283.88C458.016 285.053 457.936 286.653 457.936 288.68V331.56C457.936 332.68 458.256 333.4 458.896 333.72C459.536 334.04 460.256 334.333 461.056 334.6C461.59 334.813 462.016 335.027 462.336 335.24C462.71 335.453 462.896 335.773 462.896 336.2C462.896 336.52 462.736 336.76 462.416 336.92C462.096 337.08 461.723 337.16 461.296 337.16C460.283 337.16 459.35 337.107 458.496 337C457.643 336.947 456.79 336.92 455.936 336.92C455.136 336.867 454.256 336.84 453.296 336.84C452.39 336.84 451.536 336.867 450.736 336.92C449.99 336.973 449.216 337.027 448.416 337.08C447.616 337.187 446.683 337.24 445.616 337.24ZM512.508 337.56C511.068 337.56 509.334 337.507 507.308 337.4C505.281 337.293 503.228 337.187 501.148 337.08C499.121 337.027 497.441 337 496.108 337C495.041 337 493.948 337 492.828 337C491.761 337.053 490.641 337.107 489.468 337.16C488.294 337.267 487.041 337.32 485.708 337.32C485.228 337.32 484.801 337.213 484.428 337C484.054 336.84 483.868 336.573 483.868 336.2C483.868 335.72 484.028 335.373 484.348 335.16C484.721 334.947 485.254 334.787 485.948 334.68C487.974 334.253 489.361 333.667 490.108 332.92C490.854 332.173 491.228 330.92 491.228 329.16V293C491.228 291.187 490.854 289.907 490.108 289.16C489.414 288.413 488.028 287.827 485.948 287.4C485.254 287.293 484.721 287.133 484.348 286.92C484.028 286.653 483.868 286.28 483.868 285.8C483.868 285.427 484.054 285.16 484.428 285C484.801 284.787 485.228 284.68 485.708 284.68C486.988 284.68 488.214 284.707 489.388 284.76C490.561 284.76 491.708 284.813 492.828 284.92C494.001 284.973 495.174 285 496.348 285C497.148 285 498.214 284.973 499.548 284.92C500.934 284.813 502.401 284.733 503.948 284.68C505.548 284.573 507.041 284.493 508.428 284.44C509.814 284.333 510.934 284.28 511.788 284.28C516.268 284.28 520.294 284.92 523.868 286.2C527.441 287.48 530.481 289.267 532.988 291.56C535.548 293.853 537.494 296.573 538.828 299.72C540.161 302.867 540.828 306.28 540.828 309.96C540.828 313.64 540.161 317.133 538.828 320.44C537.494 323.747 535.574 326.68 533.068 329.24C530.614 331.8 527.628 333.827 524.108 335.32C520.641 336.813 516.774 337.56 512.508 337.56ZM511.308 333.88C515.148 333.88 518.401 332.973 521.068 331.16C523.788 329.293 525.841 326.707 527.228 323.4C528.614 320.04 529.308 316.173 529.308 311.8C529.308 308.173 528.828 304.893 527.868 301.96C526.961 298.973 525.654 296.467 523.948 294.44C522.294 292.36 520.294 290.76 517.948 289.64C515.654 288.52 513.148 287.96 510.428 287.96C508.508 287.96 506.881 288.013 505.548 288.12C504.268 288.227 503.281 288.547 502.588 289.08C501.948 289.56 501.628 290.387 501.628 291.56V326.76C501.628 328.627 502.028 330.093 502.828 331.16C503.681 332.173 504.828 332.893 506.268 333.32C507.761 333.693 509.441 333.88 511.308 333.88ZM560.085 338.12C557.152 338.12 554.565 337.373 552.325 335.88C550.085 334.387 548.325 332.333 547.045 329.72C545.765 327.053 545.125 324.04 545.125 320.68C545.125 317.427 545.872 314.467 547.365 311.8C548.912 309.08 550.965 306.92 553.525 305.32C556.085 303.72 558.885 302.92 561.925 302.92C564.165 302.92 566.165 303.4 567.925 304.36C569.685 305.267 571.072 306.547 572.085 308.2C573.152 309.8 573.685 311.613 573.685 313.64C573.685 315.56 572.858 316.52 571.205 316.52H554.965C554.218 316.52 553.658 316.733 553.285 317.16C552.965 317.533 552.805 318.253 552.805 319.32C552.805 321.56 553.285 323.587 554.245 325.4C555.258 327.213 556.592 328.653 558.245 329.72C559.898 330.787 561.792 331.32 563.925 331.32C565.472 331.32 566.885 331.027 568.165 330.44C569.498 329.8 570.752 328.947 571.925 327.88C572.138 327.72 572.325 327.587 572.485 327.48C572.645 327.32 572.805 327.24 572.965 327.24C573.498 327.24 573.765 327.56 573.765 328.2C573.765 328.947 573.445 329.853 572.805 330.92C572.165 332.147 571.232 333.32 570.005 334.44C568.832 335.56 567.392 336.44 565.685 337.08C563.978 337.773 562.112 338.12 560.085 338.12ZM554.965 313.4H560.645C562.032 313.4 563.072 313.373 563.765 313.32C564.458 313.267 565.125 313.16 565.765 313C566.032 312.947 566.218 312.733 566.325 312.36C566.432 311.933 566.485 311.453 566.485 310.92C566.485 309.48 565.925 308.28 564.805 307.32C563.738 306.307 562.405 305.8 560.805 305.8C559.685 305.8 558.592 306.147 557.525 306.84C556.458 307.48 555.578 308.307 554.885 309.32C554.192 310.333 553.872 311.373 553.925 312.44C553.925 313.08 554.272 313.4 554.965 313.4ZM588.421 338.12C586.715 338.12 585.061 337.88 583.461 337.4C581.915 336.973 580.501 336.307 579.221 335.4C578.848 334.653 578.555 333.48 578.341 331.88C578.181 330.28 578.101 328.707 578.101 327.16C578.101 326.52 578.555 326.2 579.461 326.2C579.835 326.2 580.155 326.307 580.421 326.52C580.688 326.733 580.875 326.973 580.981 327.24C581.888 329.587 583.035 331.48 584.421 332.92C585.808 334.307 587.381 335 589.141 335C590.635 335 591.808 334.547 592.661 333.64C593.515 332.68 593.941 331.587 593.941 330.36C593.941 328.92 593.408 327.72 592.341 326.76C591.328 325.8 589.915 324.813 588.101 323.8C586.448 322.893 584.955 321.933 583.621 320.92C582.341 319.907 581.328 318.76 580.581 317.48C579.835 316.147 579.461 314.6 579.461 312.84C579.461 310.867 579.968 309.133 580.981 307.64C581.995 306.147 583.408 304.973 585.221 304.12C587.088 303.267 589.221 302.84 591.621 302.84C593.328 302.84 594.848 303.027 596.181 303.4C597.568 303.773 598.528 304.147 599.061 304.52C599.488 305.053 599.835 306.04 600.101 307.48C600.368 308.867 600.501 310.333 600.501 311.88C600.501 312.36 600.101 312.6 599.301 312.6C598.928 312.6 598.555 312.493 598.181 312.28C597.808 312.067 597.568 311.853 597.461 311.64C596.768 309.667 595.888 308.173 594.821 307.16C593.755 306.147 592.528 305.64 591.141 305.64C589.915 305.64 588.795 306.04 587.781 306.84C586.821 307.587 586.341 308.653 586.341 310.04C586.341 311.16 586.795 312.173 587.701 313.08C588.661 313.987 590.021 314.92 591.781 315.88C595.141 317.693 597.568 319.427 599.061 321.08C600.555 322.68 601.301 324.84 601.301 327.56C601.301 330.813 600.181 333.4 597.941 335.32C595.701 337.187 592.528 338.12 588.421 338.12ZM606.794 337.24C606.367 337.24 606.02 337.16 605.754 337C605.487 336.787 605.354 336.52 605.354 336.2C605.354 335.773 605.514 335.453 605.834 335.24C606.154 335.027 606.527 334.867 606.954 334.76C608.234 334.44 609.14 334.093 609.674 333.72C610.26 333.347 610.554 332.707 610.554 331.8V314.44C610.554 312.733 610.287 311.453 609.754 310.6C609.22 309.747 608.314 309.213 607.034 309C606.767 308.947 606.554 308.813 606.394 308.6C606.234 308.333 606.154 308.04 606.154 307.72C606.154 306.973 606.447 306.573 607.034 306.52C609.594 305.987 611.807 305.267 613.674 304.36C615.594 303.4 617.06 302.653 618.074 302.12C618.82 301.747 619.3 301.56 619.514 301.56C620.1 301.56 620.394 301.827 620.394 302.36C620.34 303.107 620.234 304.147 620.074 305.48C619.914 306.76 619.754 308.147 619.594 309.64C619.487 311.08 619.434 312.44 619.434 313.72V331.72C619.434 332.52 619.727 333.133 620.314 333.56C620.9 333.987 621.834 334.387 623.114 334.76C623.54 334.92 623.914 335.107 624.234 335.32C624.554 335.48 624.714 335.773 624.714 336.2C624.714 336.84 624.26 337.16 623.354 337.16C622.34 337.16 621.354 337.133 620.394 337.08C619.487 337.027 618.58 336.973 617.674 336.92C616.82 336.867 615.914 336.84 614.954 336.84C614.047 336.84 613.167 336.867 612.314 336.92C611.46 336.973 610.58 337.027 609.674 337.08C608.82 337.187 607.86 337.24 606.794 337.24ZM614.794 296.92C613.247 296.92 611.94 296.387 610.874 295.32C609.807 294.253 609.274 292.973 609.274 291.48C609.274 289.827 609.807 288.467 610.874 287.4C611.94 286.333 613.247 285.8 614.794 285.8C616.394 285.8 617.727 286.333 618.794 287.4C619.86 288.467 620.394 289.827 620.394 291.48C620.394 292.973 619.86 294.253 618.794 295.32C617.727 296.387 616.394 296.92 614.794 296.92ZM642.658 360.12C637.644 360.12 633.724 359.293 630.898 357.64C628.071 355.987 626.658 353.72 626.658 350.84C626.658 349.347 626.844 348.093 627.218 347.08C627.644 346.12 628.471 345.213 629.698 344.36C630.604 343.667 631.591 342.893 632.658 342.04C633.724 341.24 634.711 340.493 635.618 339.8L639.378 340.76C637.404 341.933 635.938 343.133 634.978 344.36C634.018 345.64 633.538 347.133 633.538 348.84C633.538 350.973 634.444 352.76 636.258 354.2C638.124 355.64 640.471 356.36 643.298 356.36C646.764 356.36 649.324 355.64 650.978 354.2C652.098 353.24 652.978 352.093 653.618 350.76C654.258 349.427 654.578 348.067 654.578 346.68C654.578 345.667 654.231 344.84 653.538 344.2C652.898 343.613 651.778 343.107 650.178 342.68C648.578 342.307 646.391 342.013 643.618 341.8C638.231 341.32 634.418 340.387 632.178 339C629.991 337.667 628.898 335.8 628.898 333.4C628.898 332.92 629.031 332.44 629.298 331.96C629.618 331.427 630.178 330.893 630.978 330.36C631.938 329.613 632.738 329 633.378 328.52C634.071 328.04 634.631 327.587 635.058 327.16C635.484 326.733 635.804 326.307 636.018 325.88L639.538 327.32C638.418 327.693 637.484 328.227 636.738 328.92C636.044 329.56 635.698 330.147 635.698 330.68C635.698 331.267 636.071 331.8 636.818 332.28C637.564 332.707 638.738 333.053 640.338 333.32C641.938 333.587 644.098 333.827 646.818 334.04C652.311 334.413 656.311 335.267 658.818 336.6C661.378 337.88 662.658 339.773 662.658 342.28C662.658 344.467 662.071 346.6 660.898 348.68C659.724 350.813 658.178 352.733 656.258 354.44C654.338 356.2 652.204 357.587 649.858 358.6C647.511 359.613 645.111 360.12 642.658 360.12ZM643.698 325.8C645.458 325.8 646.898 324.84 648.018 322.92C649.138 320.947 649.698 318.413 649.698 315.32C649.698 313.507 649.404 311.88 648.818 310.44C648.284 309 647.538 307.88 646.578 307.08C645.618 306.227 644.524 305.8 643.298 305.8C642.178 305.8 641.138 306.227 640.178 307.08C639.271 307.933 638.551 309.08 638.018 310.52C637.484 311.907 637.218 313.48 637.218 315.24C637.218 317.213 637.484 319 638.018 320.6C638.604 322.2 639.404 323.48 640.418 324.44C641.431 325.347 642.524 325.8 643.698 325.8ZM642.978 329.08C640.631 329.08 638.364 328.52 636.178 327.4C634.044 326.227 632.284 324.68 630.898 322.76C629.511 320.787 628.818 318.573 628.818 316.12C628.818 313.507 629.538 311.213 630.978 309.24C632.418 307.213 634.311 305.64 636.658 304.52C639.004 303.347 641.511 302.76 644.178 302.76C645.778 302.76 647.271 302.973 648.658 303.4C650.044 303.773 651.511 304.093 653.058 304.36C654.178 304.627 655.191 304.813 656.098 304.92C657.004 305.027 657.991 305.08 659.058 305.08C659.804 305.08 660.604 305.053 661.458 305C662.364 304.893 663.031 304.84 663.458 304.84C664.258 304.84 664.658 305.373 664.658 306.44C664.658 307.24 664.338 308.04 663.698 308.84C663.431 309.16 663.138 309.32 662.818 309.32H660.658C659.271 309.32 658.391 309.533 658.018 309.96C657.911 310.12 657.831 310.307 657.778 310.52C657.724 310.733 657.671 311.08 657.618 311.56C657.618 312.04 657.618 312.76 657.618 313.72C657.618 316.493 656.924 319.053 655.538 321.4C654.204 323.693 652.418 325.56 650.178 327C647.991 328.387 645.591 329.08 642.978 329.08ZM667.501 337.24C667.074 337.24 666.701 337.16 666.381 337C666.061 336.787 665.901 336.52 665.901 336.2C665.901 335.773 666.061 335.453 666.381 335.24C666.754 335.027 667.207 334.84 667.741 334.68C668.541 334.467 669.261 334.173 669.901 333.8C670.594 333.427 670.941 332.707 670.941 331.64V313.72C670.941 312.493 670.754 311.453 670.381 310.6C670.061 309.693 669.341 309.107 668.221 308.84C668.007 308.733 667.821 308.6 667.661 308.44C667.501 308.227 667.421 307.907 667.421 307.48C667.421 306.787 667.661 306.387 668.141 306.28C670.007 305.853 671.847 305.293 673.661 304.6C675.527 303.853 677.154 303.08 678.541 302.28C678.754 302.173 678.967 302.04 679.181 301.88C679.394 301.72 679.607 301.64 679.821 301.64C680.087 301.64 680.247 301.747 680.301 301.96C680.407 302.12 680.461 302.307 680.461 302.52C680.461 302.893 680.381 303.587 680.221 304.6C680.114 305.613 680.061 306.493 680.061 307.24C680.061 307.453 680.061 307.693 680.061 307.96C680.114 308.173 680.167 308.307 680.221 308.36C682.034 306.653 683.901 305.32 685.821 304.36C687.794 303.4 690.007 302.92 692.461 302.92C695.181 302.92 697.447 303.96 699.261 306.04C701.127 308.12 702.061 310.867 702.061 314.28V331.72C702.061 332.787 702.381 333.48 703.021 333.8C703.661 334.12 704.381 334.413 705.181 334.68C705.607 334.84 706.007 335.053 706.381 335.32C706.754 335.533 706.941 335.853 706.941 336.28C706.941 336.6 706.754 336.84 706.381 337C706.061 337.16 705.741 337.24 705.421 337.24C704.354 337.24 703.421 337.187 702.621 337.08C701.821 337.027 701.021 336.973 700.221 336.92C699.474 336.867 698.621 336.84 697.661 336.84C696.754 336.84 695.901 336.867 695.101 336.92C694.301 336.973 693.474 337.027 692.621 337.08C691.821 337.187 690.887 337.24 689.821 337.24C689.554 337.24 689.261 337.16 688.941 337C688.621 336.84 688.461 336.6 688.461 336.28C688.461 335.853 688.621 335.533 688.941 335.32C689.261 335.053 689.634 334.84 690.061 334.68C690.861 334.413 691.554 334.12 692.141 333.8C692.781 333.48 693.101 332.787 693.101 331.72V315.48C693.101 313.347 692.567 311.667 691.501 310.44C690.487 309.213 689.101 308.6 687.341 308.6C685.901 308.6 684.647 308.813 683.581 309.24C682.514 309.667 681.474 310.28 680.461 311.08C680.247 311.24 680.087 311.48 679.981 311.8C679.874 312.067 679.821 312.36 679.821 312.68V331.72C679.821 332.787 680.114 333.507 680.701 333.88C681.341 334.2 682.061 334.467 682.861 334.68C683.981 335.053 684.541 335.56 684.541 336.2C684.541 336.52 684.407 336.787 684.141 337C683.874 337.16 683.527 337.24 683.101 337.24C682.034 337.24 681.101 337.187 680.301 337.08C679.501 337.027 678.727 336.973 677.981 336.92C677.234 336.867 676.381 336.84 675.421 336.84C674.514 336.84 673.661 336.867 672.861 336.92C672.061 336.973 671.234 337.027 670.381 337.08C669.527 337.187 668.567 337.24 667.501 337.24ZM756.968 338.12C753.181 338.12 749.608 337.48 746.248 336.2C742.888 334.92 739.901 333.133 737.288 330.84C734.728 328.493 732.701 325.72 731.208 322.52C729.768 319.32 729.048 315.8 729.048 311.96C729.048 308.173 729.768 304.6 731.208 301.24C732.701 297.88 734.781 294.92 737.448 292.36C740.115 289.747 743.261 287.693 746.888 286.2C750.568 284.653 754.621 283.88 759.048 283.88C760.061 283.88 761.315 283.987 762.808 284.2C764.301 284.36 765.848 284.573 767.448 284.84C769.048 285.107 770.515 285.4 771.848 285.72C773.235 286.04 774.301 286.36 775.048 286.68C775.421 286.84 775.715 287.053 775.928 287.32C776.141 287.533 776.275 287.853 776.328 288.28C776.595 290.04 776.808 291.72 776.968 293.32C777.128 294.92 777.208 296.307 777.208 297.48C777.208 297.907 777.075 298.28 776.808 298.6C776.595 298.92 776.301 299.08 775.928 299.08C775.341 299.08 774.915 298.893 774.648 298.52C774.381 298.093 774.141 297.64 773.928 297.16C773.501 296.2 773.021 295.267 772.488 294.36C771.955 293.4 771.288 292.493 770.488 291.64C769.955 291.107 769.208 290.547 768.248 289.96C767.341 289.32 766.168 288.787 764.728 288.36C763.288 287.933 761.528 287.72 759.448 287.72C756.515 287.72 753.875 288.333 751.528 289.56C749.181 290.733 747.208 292.387 745.608 294.52C744.008 296.653 742.781 299.08 741.928 301.8C741.075 304.467 740.648 307.267 740.648 310.2C740.648 313.88 741.075 317.213 741.928 320.2C742.781 323.133 743.981 325.667 745.528 327.8C747.075 329.88 748.915 331.48 751.048 332.6C753.181 333.72 755.581 334.28 758.248 334.28C760.168 334.28 761.661 334.013 762.728 333.48C763.848 332.893 764.648 332.387 765.128 331.96C765.715 331.48 766.195 330.76 766.568 329.8C766.941 328.84 767.155 327.72 767.208 326.44C767.208 325.96 767.208 325.347 767.208 324.6C767.261 323.853 767.288 323.107 767.288 322.36C767.341 321.613 767.368 321 767.368 320.52C767.368 319.933 767.261 319.427 767.048 319C766.888 318.52 766.541 318.147 766.008 317.88C765.528 317.507 764.915 317.187 764.168 316.92C763.421 316.6 762.648 316.387 761.848 316.28C761.101 316.12 760.488 316.013 760.008 315.96C759.635 315.907 759.235 315.747 758.808 315.48C758.381 315.16 758.168 314.787 758.168 314.36C758.168 313.933 758.355 313.613 758.728 313.4C759.155 313.187 759.528 313.08 759.848 313.08C761.075 313.08 762.328 313.107 763.608 313.16C764.941 313.213 766.248 313.267 767.528 313.32C768.861 313.373 770.141 313.4 771.368 313.4C772.861 313.4 774.328 313.347 775.768 313.24C777.261 313.133 778.781 313.08 780.328 313.08C780.648 313.08 780.968 313.187 781.288 313.4C781.661 313.56 781.848 313.88 781.848 314.36C781.848 314.787 781.661 315.133 781.288 315.4C780.915 315.667 780.568 315.827 780.248 315.88C778.808 316.253 777.821 316.733 777.288 317.32C776.808 317.907 776.488 318.733 776.328 319.8C776.115 320.973 775.955 322.013 775.848 322.92C775.795 323.827 775.768 324.787 775.768 325.8V328.28C775.768 328.547 775.848 328.787 776.008 329C776.221 329.213 776.435 329.453 776.648 329.72C776.861 329.987 777.048 330.253 777.208 330.52C777.421 330.787 777.528 331.053 777.528 331.32C777.528 331.64 777.421 331.987 777.208 332.36C777.048 332.68 776.675 332.893 776.088 333C775.715 333.053 774.995 333.347 773.928 333.88C772.861 334.413 771.501 335.027 769.848 335.72C768.248 336.36 766.355 336.92 764.168 337.4C762.035 337.88 759.635 338.12 756.968 338.12ZM786.958 337.24C786.531 337.24 786.158 337.16 785.838 337C785.518 336.787 785.358 336.52 785.358 336.2C785.358 335.773 785.518 335.453 785.838 335.24C786.211 335.027 786.664 334.84 787.198 334.68C788.318 334.36 789.091 333.987 789.518 333.56C789.998 333.08 790.238 332.44 790.238 331.64V313.64C790.238 312.413 790.051 311.4 789.678 310.6C789.358 309.747 788.638 309.187 787.518 308.92C787.304 308.813 787.091 308.68 786.878 308.52C786.664 308.307 786.558 308.013 786.558 307.64C786.558 306.947 786.851 306.52 787.438 306.36C789.038 305.933 790.771 305.373 792.638 304.68C794.504 303.933 796.078 303.213 797.358 302.52C797.624 302.36 797.918 302.2 798.238 302.04C798.558 301.88 798.798 301.8 798.958 301.8C799.384 301.8 799.598 302.067 799.598 302.6C799.598 302.813 799.571 303.293 799.518 304.04C799.518 304.787 799.491 305.613 799.438 306.52C799.438 307.373 799.411 308.147 799.358 308.84C799.358 309.16 799.438 309.32 799.598 309.32C800.451 308.2 801.411 307.16 802.478 306.2C803.544 305.24 804.664 304.44 805.838 303.8C807.064 303.16 808.291 302.84 809.518 302.84C811.064 302.84 812.211 303.16 812.958 303.8C813.758 304.44 814.158 305.24 814.158 306.2C814.158 306.947 813.944 307.747 813.518 308.6C813.144 309.453 812.638 310.2 811.998 310.84C811.411 311.427 810.744 311.72 809.998 311.72C809.571 311.72 809.118 311.64 808.638 311.48C808.158 311.267 807.678 311.027 807.198 310.76C806.718 310.547 806.211 310.333 805.678 310.12C805.198 309.907 804.744 309.8 804.318 309.8C802.984 309.8 801.784 310.307 800.718 311.32C799.651 312.28 799.118 314.2 799.118 317.08V331.16C799.118 332.12 799.464 332.867 800.158 333.4C800.851 333.88 801.918 334.333 803.358 334.76C803.944 334.92 804.371 335.107 804.638 335.32C804.958 335.48 805.118 335.773 805.118 336.2C805.118 336.893 804.638 337.24 803.678 337.24C802.078 337.24 800.558 337.16 799.118 337C797.731 336.893 796.344 336.84 794.958 336.84C794.051 336.84 793.171 336.867 792.318 336.92C791.518 336.973 790.691 337.027 789.838 337.08C788.984 337.187 788.024 337.24 786.958 337.24ZM832.708 338.12C829.561 338.12 826.735 337.427 824.228 336.04C821.721 334.6 819.721 332.627 818.228 330.12C816.735 327.613 815.988 324.787 815.988 321.64C815.988 319.187 816.468 316.84 817.428 314.6C818.388 312.36 819.695 310.36 821.348 308.6C823.001 306.84 824.948 305.453 827.188 304.44C829.428 303.373 831.828 302.84 834.388 302.84C837.641 302.84 840.548 303.613 843.108 305.16C845.721 306.653 847.801 308.653 849.348 311.16C850.895 313.667 851.668 316.413 851.668 319.4C851.668 322.707 850.948 325.8 849.508 328.68C848.121 331.507 846.015 333.8 843.188 335.56C840.415 337.267 836.921 338.12 832.708 338.12ZM834.308 335C835.641 335 836.815 334.733 837.828 334.2C838.895 333.667 839.748 332.84 840.388 331.72C841.028 330.6 841.455 329.133 841.668 327.32C841.935 325.453 842.068 323.453 842.068 321.32C842.068 318.493 841.695 315.933 840.948 313.64C840.201 311.347 839.161 309.507 837.828 308.12C836.495 306.733 834.921 306.04 833.108 306.04C832.095 306.04 831.161 306.227 830.308 306.6C829.508 306.92 828.761 307.48 828.068 308.28C827.108 309.4 826.441 310.947 826.068 312.92C825.748 314.84 825.588 317.08 825.588 319.64C825.588 322.2 825.961 324.653 826.708 327C827.508 329.347 828.548 331.267 829.828 332.76C831.161 334.253 832.655 335 834.308 335ZM882.068 338.6C881.641 338.6 881.428 338.36 881.428 337.88C881.428 337.293 881.481 336.467 881.588 335.4C881.748 334.333 881.828 333.48 881.828 332.84C881.828 332.68 881.801 332.547 881.748 332.44C881.748 332.28 881.748 332.173 881.748 332.12C880.095 333.933 878.148 335.4 875.908 336.52C873.721 337.64 871.401 338.2 868.948 338.2C867.241 338.2 865.695 337.747 864.308 336.84C862.975 335.933 861.908 334.68 861.108 333.08C860.361 331.48 859.988 329.613 859.988 327.48V312.12C859.988 310.893 859.748 309.933 859.268 309.24C858.788 308.493 857.935 307.933 856.708 307.56C856.388 307.507 856.095 307.373 855.828 307.16C855.615 306.947 855.508 306.627 855.508 306.2C855.508 305.773 855.615 305.453 855.828 305.24C856.095 305.027 856.388 304.893 856.708 304.84C858.841 304.733 860.681 304.547 862.228 304.28C863.775 303.96 865.428 303.587 867.188 303.16C867.401 303.053 867.615 302.973 867.828 302.92C868.041 302.867 868.255 302.84 868.468 302.84C869.161 302.84 869.481 303.213 869.428 303.96C869.268 305.187 869.135 306.227 869.028 307.08C868.921 307.88 868.868 308.893 868.868 310.12V325.56C868.868 326.84 869.108 327.987 869.588 329C870.068 330.013 870.735 330.813 871.588 331.4C872.441 331.987 873.375 332.307 874.388 332.36C875.401 332.36 876.335 332.253 877.188 332.04C878.095 331.827 878.975 331.347 879.828 330.6C880.255 330.28 880.735 329.693 881.268 328.84C881.801 327.933 882.068 326.76 882.068 325.32V311.88C882.068 310.867 881.828 310.067 881.348 309.48C880.921 308.84 880.335 308.36 879.588 308.04C878.895 307.72 878.175 307.56 877.428 307.56C876.841 307.507 876.388 307.373 876.068 307.16C875.748 306.947 875.588 306.52 875.588 305.88C875.588 305.347 875.775 304.973 876.148 304.76C876.521 304.547 876.948 304.44 877.428 304.44C879.775 304.28 881.668 304.147 883.108 304.04C884.548 303.933 885.748 303.8 886.708 303.64C887.721 303.48 888.708 303.267 889.668 303C889.828 302.947 889.988 302.92 890.148 302.92C890.361 302.867 890.521 302.84 890.628 302.84C891.375 302.84 891.748 303.133 891.748 303.72C891.748 303.88 891.721 304.067 891.668 304.28C891.668 304.44 891.615 304.627 891.508 304.84C891.455 305 891.375 305.453 891.268 306.2C891.215 306.947 891.135 307.72 891.028 308.52C890.975 309.32 890.948 309.933 890.948 310.36V328.92C890.948 330.2 891.081 331.08 891.348 331.56C891.668 332.04 892.015 332.28 892.388 332.28C892.708 332.28 893.161 332.28 893.748 332.28C894.388 332.227 894.841 332.2 895.108 332.2C895.535 332.2 895.881 332.307 896.148 332.52C896.415 332.733 896.548 333.08 896.548 333.56C896.548 334.04 896.441 334.413 896.228 334.68C896.068 334.893 895.748 335.027 895.268 335.08C892.868 335.293 890.735 335.72 888.868 336.36C887.001 336.947 885.375 337.533 883.988 338.12C883.668 338.227 883.321 338.333 882.948 338.44C882.628 338.547 882.335 338.6 882.068 338.6ZM900.226 358.6C899.906 358.6 899.559 358.52 899.186 358.36C898.812 358.2 898.626 357.933 898.626 357.56C898.626 357.133 898.812 356.813 899.186 356.6C899.559 356.387 899.986 356.2 900.466 356.04C901.479 355.72 902.252 355.347 902.786 354.92C903.372 354.547 903.666 353.907 903.666 353V313.88C903.666 313.347 903.532 312.733 903.266 312.04C902.999 311.293 902.599 310.627 902.066 310.04C901.586 309.4 900.946 309.027 900.146 308.92C899.879 308.813 899.666 308.68 899.506 308.52C899.399 308.307 899.346 307.987 899.346 307.56C899.346 307.187 899.399 306.92 899.506 306.76C899.666 306.547 899.852 306.413 900.066 306.36C901.986 305.933 903.906 305.4 905.826 304.76C907.746 304.067 909.426 303.4 910.866 302.76C911.026 302.707 911.186 302.627 911.346 302.52C911.506 302.36 911.666 302.28 911.826 302.28C912.092 302.28 912.252 302.387 912.306 302.6C912.412 302.76 912.466 302.973 912.466 303.24C912.466 303.667 912.386 304.387 912.226 305.4C912.119 306.36 912.066 307.187 912.066 307.88C912.066 308.413 912.119 308.707 912.226 308.76C912.759 308.227 913.692 307.533 915.026 306.68C916.412 305.773 917.986 304.973 919.746 304.28C921.559 303.587 923.292 303.24 924.946 303.24C927.772 303.24 930.172 304.013 932.146 305.56C934.172 307.053 935.719 309 936.786 311.4C937.852 313.747 938.386 316.2 938.386 318.76C938.386 321.213 937.906 323.613 936.946 325.96C936.039 328.253 934.732 330.333 933.026 332.2C931.319 334.067 929.346 335.56 927.106 336.68C924.919 337.8 922.546 338.36 919.986 338.36C919.346 338.36 918.572 338.253 917.666 338.04C916.812 337.88 915.932 337.64 915.026 337.32C914.172 337.053 913.426 336.733 912.786 336.36C912.732 336.36 912.679 336.52 912.626 336.84C912.572 337.107 912.519 337.427 912.466 337.8C912.466 338.173 912.466 338.467 912.466 338.68V352.52C912.466 353.213 912.679 353.773 913.106 354.2C913.532 354.68 914.066 355.053 914.706 355.32C915.346 355.587 916.066 355.827 916.866 356.04C917.399 356.2 917.826 356.387 918.146 356.6C918.466 356.813 918.626 357.133 918.626 357.56C918.626 357.88 918.466 358.12 918.146 358.28C917.826 358.493 917.506 358.6 917.186 358.6C915.586 358.6 914.012 358.52 912.466 358.36C910.972 358.253 909.532 358.2 908.146 358.2C907.239 358.2 906.386 358.227 905.586 358.28C904.786 358.333 903.959 358.387 903.106 358.44C902.252 358.547 901.292 358.6 900.226 358.6ZM920.226 335C920.866 335 921.666 334.787 922.626 334.36C923.586 333.88 924.519 333.133 925.426 332.12C926.386 331.107 927.159 329.72 927.746 327.96C928.386 326.2 928.706 324.04 928.706 321.48C928.706 318.547 928.386 316.2 927.746 314.44C927.106 312.627 926.306 311.267 925.346 310.36C924.386 309.453 923.399 308.867 922.386 308.6C921.426 308.28 920.572 308.12 919.826 308.12C918.759 308.12 917.666 308.36 916.546 308.84C915.426 309.267 914.492 309.8 913.746 310.44C912.999 311.027 912.626 311.533 912.626 311.96C912.626 312.707 912.626 313.693 912.626 314.92C912.626 316.093 912.599 317.373 912.546 318.76C912.546 320.093 912.519 321.32 912.466 322.44C912.466 323.56 912.466 324.36 912.466 324.84C912.466 326.387 912.812 327.96 913.506 329.56C914.199 331.107 915.132 332.413 916.306 333.48C917.479 334.493 918.786 335 920.226 335Z" fill="#5E3D1A"/>
</g>
<defs>
<filter id="filter0_f_5299_194" x="-100" y="-100" width="1400" height="830" filterUnits="userSpaceOnUse" color-interpolation-filters="sRGB">
<feFlood flood-opacity="0" result="BackgroundImageFix"/>
<feBlend mode="normal" in="SourceGraphic" in2="BackgroundImageFix" result="shape"/>
<feGaussianBlur stdDeviation="50" result="effect1_foregroundBlur_5299_194"/>
</filter>
<filter id="filter1_f_5299_194" x="-199.514" y="-472.771" width="1599.03" height="1575.54" filterUnits="userSpaceOnUse" color-interpolation-filters="sRGB">
<feFlood flood-opacity="0" result="BackgroundImageFix"/>
<feBlend mode="normal" in="SourceGraphic" in2="BackgroundImageFix" result="shape"/>
<feGaussianBlur stdDeviation="50" result="effect1_foregroundBlur_5299_194"/>
</filter>
<linearGradient id="paint0_linear_5299_194" x1="89.4752" y1="1226.38" x2="701.303" y2="443.214" gradientUnits="userSpaceOnUse">
<stop stop-color="#3245FF"/>
<stop offset="1" stop-color="#BC52EE"/>
</linearGradient>
<linearGradient id="paint1_linear_5299_194" x1="310.833" y1="676.758" x2="1415.64" y2="-228.959" gradientUnits="userSpaceOnUse">
<stop stop-color="#D83333"/>
<stop offset="1" stop-color="#F041FF"/>
</linearGradient>
<linearGradient id="paint2_linear_5299_194" x1="-631.18" y1="697.153" x2="476.46" y2="625.211" gradientUnits="userSpaceOnUse">
<stop stop-color="#3245FF"/>
<stop offset="1" stop-color="#BC52EE"/>
</linearGradient>
<linearGradient id="paint3_linear_5299_194" x1="312.998" y1="41.4215" x2="1468.33" y2="1044.23" gradientUnits="userSpaceOnUse">
<stop stop-color="#D83333"/>
<stop offset="1" stop-color="#F041FF"/>
</linearGradient>
<clipPath id="clip0_5299_194">
<rect width="1200" height="630" fill="white"/>
</clipPath>
<clipPath id="clip1_5299_194">
<rect width="1200" height="630" fill="white"/>
</clipPath>
<clipPath id="clip2_5299_194">
<rect width="1199.31" height="764.038" fill="white" transform="translate(419.736 -372.771) rotate(42.8134)"/>
</clipPath>
</defs>
</svg>
